<?xml version="1.0" encoding="UTF-8"?>
<svg id="Layer_1" data-name="Layer 1" xmlns="http://www.w3.org/2000/svg" xmlns:xlink="http://www.w3.org/1999/xlink" viewBox="0 0 200 58.34">
  <defs>
    <style>
      .cls-1 {
        fill: #e42327;
      }

      .cls-1, .cls-2, .cls-3, .cls-4, .cls-5, .cls-6, .cls-7, .cls-8 {
        stroke-width: 0px;
      }

      .cls-2 {
        fill: #78b6c5;
      }

      .cls-9 {
        filter: url(#drop-shadow-1);
      }

      .cls-3 {
        fill: #2d2e71;
      }

      .cls-4 {
        fill: #f2e00a;
      }

      .cls-5 {
        fill: #fff;
      }

      .cls-6 {
        fill: #312b6c;
      }

      .cls-7 {
        fill: #231f20;
      }

      .cls-8 {
        fill: #0e7c97;
      }
    </style>
    <filter id="drop-shadow-1" filterUnits="userSpaceOnUse">
      <feOffset dx=".13" dy="0"/>
      <feGaussianBlur result="blur" stdDeviation=".38"/>
      <feFlood flood-color="#010101" flood-opacity=".6"/>
      <feComposite in2="blur" operator="in"/>
      <feComposite in="SourceGraphic"/>
    </filter>
  </defs>
  <g class="cls-9">
    <polygon class="cls-5" points="52.62 40.11 30.97 51.04 9.33 40.11 9.33 18.24 30.97 7.3 52.62 18.24 52.62 40.11"/>
    <polygon class="cls-2" points="11.31 38.94 11.31 19.27 30.98 9.43 37.83 12.86 50.64 19.27 11.31 38.94"/>
    <polygon class="cls-8" points="50.64 19.27 50.64 38.94 30.98 48.78 24.13 45.35 11.31 38.94 50.64 19.27"/>
    <path class="cls-1" d="m26.74,24.6h1.38v-.94s-.13-1.54-2.5-1.63h-3.32s-1.88.13-2,1.82c-.13,1.69,0,3.26,0,3.26,0,0,.08,1.52,2.22,1.63h3.5s1.66-.06,2.03-1.44v-2.19l-4.22-.03v1.25h2.94v.5s.06.63-.75.75h-3.69s-.69-.13-.75-.75v-2.82s-.06-.63.56-.75h3.69s.79,0,.92.56v.78Z"/>
    <path class="cls-6" d="m36.35,24.03l1.62.02s.14-.04.16-.22v-.75s-.1-1.95-2.65-2.13l-4.11-.04s-2.81.04-2.97,2.17v.93s.08,2.05,2.33,2.15c2.25.1,2.63.14,2.63.14h1.68s.99.08,1.07.43l.02.85s-.14.61-1.32.65l-3.8-.02s-.47,0-.63-.39v-.73s-.06-.28-.34-.26h-1.5s-.16.02-.16.18v.81s-.02,1.93,2.65,2.19c0,0,1.78.06,2.31.06s2.37-.08,3.14-.32c.77-.24,1.6-1.05,1.68-2.17l-.02-.93s-.02-1.97-2.87-2.17l-3.3-.02s-1.5.04-1.62-.47v-.69s.04-.55,1.07-.59c1.03-.04,3.42-.02,3.42-.02,0,0,1.32-.08,1.32.47v.65s0,.16.2.22Z"/>
    <path class="cls-4" d="m44.71,24.79h1.14c.06,0,.1-.06.1-.11v-.71s.04-1.66-2-1.83h-3.62s-1.98,0-2,2.31v2.25s-.08,2.01,2.02,2.13h3.64s1.6.06,1.96-1.42c0,0,.2-1.28-.08-1.28h-1.12c-.07,0-.13.05-.13.12l-.05.75s.07.63-1.15.63h-2.71s-.79.06-.95-.57l-.02-2.78s.04-.79.75-.87h3.24s.79.06.87.59l.02.69s0,.08.09.09Z"/>
    <path class="cls-1" d="m33.41,15.85c-2.57,1.2-4.37,1.36-5.4,5.9,0,0-2.66-1.86-4.79-1.75-1.72.08-3.45.54-4.76,3.45-1.14,2.54.37,5.68,2.86,6.5,3.22,1.05,5.97.83,8.26,4.83,0,0-2.17-3.04-6.4-3.23-4.23-.18-6.18-3.14-6.68-4.89-1.93-6.75,5.82-9.99,10.71-6.19,0,0,.36-2.78,2.61-4.02,2.25-1.24,3.58-.61,3.58-.61Z"/>
    <path class="cls-6" d="m35.46,16.32c.2-.16.45-.26.71-.08.26.18.83.69.83.69l-2.02.91s-.16.16-.26.51-.36.53-.38.77c-.02.24,0,.75-.18.89-.18.14-.22-.08-.22-.45s.08-.97-.34-.97-.83.12-1.17.83c-.34.71-.28.91-.49.91s.06-.97.43-1.7c0,0,.2-.71,1.27-1.2,1.07-.49,1.84-1.12,1.84-1.12Z"/>
    <path class="cls-3" d="m32.91,19.12s-.06.43,0,.61c.06.18-.1.18-.18-.02-.08-.2-.06-.37,0-.47.06-.1.18-.12.18-.12Z"/>
    <path class="cls-3" d="m32.62,19.48c-.08.16-.16.59-.18.69-.02.1-.14.24-.2-.02-.06-.26.16-.77.43-.89l-.04.22Z"/>
    <path class="cls-6" d="m28.57,32.49l2.35-.06s.28-.45.51-.55c.22-.1.45-.93.67-.85.22.08.04.39-.08.67-.12.28-.12.55.08.63.2.08.77,0,.89-.08.12-.08.53-.55.63-.65s.36-.22.08.22c-.28.45-.77.97-1.38,1.2-.54.2-2.33.4-2.72.44-.05,0-.09-.01-.13-.04l-.93-.86s0-.07.03-.07Z"/>
    <path class="cls-3" d="m32.7,32.08c.08-.14.16-.2.16-.41s.08-.3.12-.12c.04.18-.02.39-.02.39l-.26.14Z"/>
    <path class="cls-3" d="m33.07,31.9c.08-.1.22-.3.28-.41.06-.1.18-.14.16.1-.02.24-.34.34-.53.47-.18.12.08-.16.08-.16Z"/>
    <path class="cls-5" d="m16.48,36.93h.88s-.16-1.06-1.1-1.06-1.03.98-1.03.98v1.43s.23.58,1.01.56c.78-.02.73-.35.73-.35v.2c0,.09.07.17.17.17h.25v-1.52h-.87v.92c0,.1-.09.19-.19.19h-.1c-.09,0-.15-.07-.15-.15v-1.75c0-.11.09-.2.2-.2h.07c.11,0,.18.09.17.2v.39"/>
    <path class="cls-5" d="m36.85,35.87h2.24s0,.42,0,.42h-1.41v1.06h.46v.48h-.45v.66h1.16c.13,0,.24.11.24.24v.16h-2.25v-1.06h0c-.13,0-.24-.11-.24-.24h0c0-.13.11-.24.24-.24h0v-1.47Z"/>
    <path class="cls-5" d="m22.74,38.84l-.09-.38c-.06-.23-.18-.53-.56-.68l.35-.36c.14-.15.22-.35.22-.56h0c0-.27-.11-.54-.3-.73-.18-.18-.43-.28-.69-.28l-1.21.02v1.5h-.04c-.11,0-.21.09-.21.21v.06c0,.11.09.19.19.19h.05v1.05h.8v-1.09c.28,0,.51.23.51.52v.54h.97Zm-1.51-1.46v-1.15c.3,0,.54.24.54.54v.05c0,.3-.24.55-.54.55Z"/>
    <path class="cls-5" d="m24.19,35.81c-.58,0-1.05.47-1.05,1.05v.51c-.13,0-.23.11-.23.23h0c0,.14.11.25.23.25v1h.82s0-1.06,0-1.06h.49v1.05h.82v-1.95c0-.6-.49-1.09-1.09-1.09Zm.29,1.58h-.54v-.89c0-.15.12-.28.27-.28s.27.12.27.27v.9Z"/>
    <path class="cls-5" d="m43.25,35.82h0c-.58,0-1.05.47-1.05,1.05v.51c-.13,0-.23.11-.23.23h0c0,.14.11.25.23.25v1h.82s0-1.06,0-1.06h.49v1.05h.82v-1.95c0-.6-.49-1.09-1.09-1.09Zm.29,1.58h-.54v-.89c0-.15.12-.28.27-.28h0c.15,0,.27.12.27.27v.9Z"/>
    <path class="cls-5" d="m35.32,40.01c-.58,0-1.05.47-1.05,1.05v.51c-.13,0-.23.11-.23.23h0c0,.14.11.25.23.25v1h.82s0-1.06,0-1.06h.49v1.05h.82v-1.95c0-.6-.49-1.09-1.09-1.09Zm.29,1.58h-.54v-.89c0-.15.12-.28.27-.28s.27.12.27.27v.9Z"/>
    <path class="cls-5" d="m30.34,40.03h0c-.58,0-1.05.47-1.05,1.05v.51c-.13,0-.23.11-.23.23h0c0,.14.11.25.23.25v1h.82s0-1.06,0-1.06h.49v1.05h.82v-1.95c0-.6-.49-1.09-1.09-1.09Zm.29,1.58h-.54v-.89c0-.15.12-.28.27-.28s.27.12.27.27v.9Z"/>
    <path class="cls-5" d="m25.71,35.83h.88v1.54h0c.27,0,.48-.21.48-.48v-1.06h.91v.96c0,.19-.06.38-.18.53-.08.11-.17.2-.35.28h0,0c.27.19.42.4.51.72.01.04.02.09.02.13v.47h-.87v-.61c0-.3-.24-.54-.54-.54h0v1.12h-.9v-1.07h0c-.11,0-.19-.09-.19-.19v-.1c0-.12.1-.22.22-.22h0s0-1.46,0-1.46Z"/>
    <path class="cls-5" d="m39.46,35.87h.88v1.54h0c.27,0,.48-.21.48-.48v-1.06h.91v.96c0,.19-.06.38-.18.53-.08.11-.17.2-.35.28h0,0c.27.19.42.4.51.72.01.04.02.09.02.13v.47h-.87v-.61c0-.3-.24-.54-.54-.54h0v1.12h-.9v-1.07h0c-.11,0-.19-.09-.19-.19v-.1c0-.12.1-.22.22-.22h0s0-1.46,0-1.46Z"/>
    <path class="cls-5" d="m31.33,35.85h-1.57c-.35,0-.63.28-.63.63v.05c0,.13.04.26.12.36l1.05,1.35c.07.09,0,.22-.11.22h-1.1v.42h1.5c.38,0,.69-.31.69-.69h0c0-.17-.06-.33-.16-.46l-1.04-1.29c-.06-.07,0-.18.08-.18h1.16s0-.42,0-.42Z"/>
    <path class="cls-5" d="m31.73,35.87h2.24s0,.42,0,.42h-1.41v1.06h.46v.48h-.45v.66h1.16c.13,0,.24.11.24.24v.16h-2.25v-1.06h0c-.13,0-.24-.11-.24-.24h0c0-.13.11-.24.24-.24h0v-1.47Z"/>
    <path class="cls-5" d="m17.8,35.91h2.24s0,.42,0,.42h-1.41v1.06h.46v.48h-.45v.66h1.16c.13,0,.24.11.24.24v.16h-2.25v-1.06h0c-.13,0-.24-.11-.24-.24h0c0-.13.11-.24.24-.24h0v-1.47Z"/>
    <path class="cls-5" d="m35.01,35.87h-.77v2.99h.86c.7,0,1.27-.57,1.27-1.27v-.36c0-.75-.61-1.36-1.36-1.36Zm.54,2.03c0,.29-.24.53-.53.53h0v-2.13h.02c.28,0,.51.23.51.52v1.08Z"/>
    <path class="cls-5" d="m24.42,41.1h.85c0-.61-.5-1.11-1.11-1.11h0c-.61,0-1.11.5-1.11,1.11v.92c0,.61.5,1.11,1.11,1.11h0c.62,0,1.13-.51,1.13-1.13h0s-.87,0-.87,0v.4c0,.12-.1.21-.21.21h-.05c-.12,0-.21-.09-.21-.21v-1.72c0-.14.11-.25.25-.25h0c.12,0,.22.1.22.22,0,.19,0,.44,0,.44Z"/>
    <rect class="cls-5" x="25.55" y="39.99" width=".83" height="3.07"/>
    <polygon class="cls-5" points="27.49 42.67 27.49 39.98 26.66 39.98 26.66 42.67 26.66 42.67 26.66 42.73 26.66 43.05 26.66 43.05 26.66 43.05 28.86 43.05 28.86 42.67 27.49 42.67"/>
    <path class="cls-5" d="m33.04,41.12h.85c0-.61-.5-1.11-1.11-1.11h0c-.61,0-1.11.5-1.11,1.11v.92c0,.61.5,1.11,1.11,1.11h0c.62,0,1.13-.51,1.13-1.13h0s-.87,0-.87,0v.4c0,.12-.1.21-.21.21h-.05c-.12,0-.21-.09-.21-.21v-1.72c0-.14.11-.25.25-.25h0c.12,0,.22.1.22.22,0,.19,0,.44,0,.44Z"/>
    <path class="cls-5" d="m38.07,39.98h-1.18v1.57h-.05c-.1,0-.18.08-.18.18v.09c0,.08.07.15.15.15h.08v1.07h.82v-1.06h.42c.53,0,.97-.43.97-.97,0-.57-.46-1.03-1.03-1.03Zm.18,1.03c0,.3-.25.55-.55.55h0v-1.13h0c.3,0,.55.25.55.55v.03Z"/>
    <path class="cls-5" d="m44.8,35.84h.81v1.54h.59v-1.57h.84v3.06h-.84v-1.08h-.6v1.07h-.79v-1.05h0c-.12,0-.22-.1-.22-.22h0c0-.11.09-.2.2-.2h.01v-1.55Z"/>
  </g>
  <g>
    <path class="cls-7" d="m65.17,30.7v6.22h-2.8v-13.96h2.8v6.26l5.08-6.26h3.38l-5.76,6.92,5.92,7.04h-3.54l-5.08-6.22Z"/>
    <path class="cls-7" d="m86.09,36.92h-2.82v-1.4c-.7.94-1.92,1.54-3.3,1.54-2.58,0-4.44-1.68-4.44-4.72v-6.5h2.8v6.1c0,1.78.98,2.74,2.46,2.74s2.48-.96,2.48-2.74v-6.1h2.82v11.08Z"/>
    <path class="cls-7" d="m88.55,22.88c0-.92.72-1.64,1.72-1.64s1.72.72,1.72,1.64-.74,1.64-1.72,1.64-1.72-.72-1.72-1.64Zm.3,2.96h2.8v11.08h-2.8v-11.08Z"/>
    <path class="cls-7" d="m94.85,28.14h-1.32v-2.3h1.32v-2.74h2.82v2.74h2.48v2.3h-2.48v5.36c0,.74.3,1.06,1.18,1.06h1.3v2.36h-1.76c-2.12,0-3.54-.9-3.54-3.44v-5.34Z"/>
    <path class="cls-7" d="m106.51,25.66c1.78,0,3,.84,3.66,1.76v-1.58h2.82v11.08h-2.82v-1.62c-.66.96-1.92,1.8-3.68,1.8-2.8,0-5.04-2.3-5.04-5.76s2.24-5.68,5.06-5.68Zm.72,2.46c-1.5,0-2.92,1.12-2.92,3.22s1.42,3.3,2.92,3.3,2.94-1.16,2.94-3.26-1.4-3.26-2.94-3.26Z"/>
    <path class="cls-7" d="m123.49,30.8c0-1.78-.98-2.74-2.46-2.74s-2.5.96-2.5,2.74v6.12h-2.8v-11.08h2.8v1.38c.72-.94,1.92-1.54,3.34-1.54,2.58,0,4.42,1.68,4.42,4.74v6.5h-2.8v-6.12Z"/>
    <path class="cls-7" d="m133.19,37.1c-2.78,0-4.72-1.62-4.84-3.68h2.82c.1.84.88,1.48,2,1.48s1.7-.5,1.7-1.14c0-1.98-6.26-.72-6.26-4.78,0-1.84,1.64-3.32,4.38-3.32s4.3,1.46,4.46,3.66h-2.68c-.08-.86-.76-1.44-1.86-1.44-1.04,0-1.58.42-1.58,1.06,0,2.02,6.14.76,6.22,4.82,0,1.9-1.66,3.34-4.36,3.34Z"/>
    <path class="cls-7" d="m139.55,22.88c0-.92.72-1.64,1.72-1.64s1.72.72,1.72,1.64-.74,1.64-1.72,1.64-1.72-.72-1.72-1.64Zm.3,2.96h2.8v11.08h-2.8v-11.08Z"/>
    <path class="cls-7" d="m163.11,27.16h-3.22c-.64-1.18-1.8-1.8-3.28-1.8-2.5,0-4.24,1.78-4.24,4.56s1.76,4.6,4.36,4.6c2.16,0,3.54-1.24,3.96-3.22h-4.8v-2.14h7.56v2.44c-.56,2.84-3.1,5.44-6.82,5.44-4.06,0-7.14-2.94-7.14-7.12s3.08-7.14,7.12-7.14c3.12,0,5.6,1.58,6.5,4.38Z"/>
    <path class="cls-7" d="m170.35,37.06c-2.9,0-5.14-1.52-5.18-4.16h3c.08,1.12.82,1.86,2.12,1.86s2.1-.7,2.1-1.7c0-3.02-7.2-1.2-7.18-6.26,0-2.52,2.04-4.04,4.92-4.04s4.82,1.46,5,3.98h-3.08c-.06-.92-.8-1.64-2-1.66-1.1-.04-1.92.5-1.92,1.64,0,2.8,7.16,1.24,7.16,6.16,0,2.2-1.76,4.18-4.94,4.18Z"/>
    <path class="cls-7" d="m184.11,22.78c3.1,0,5.62,1.66,6.56,4.52h-3.22c-.66-1.34-1.86-2-3.36-2-2.44,0-4.18,1.78-4.18,4.62s1.74,4.62,4.18,4.62c1.5,0,2.7-.66,3.36-2.02h3.22c-.94,2.88-3.46,4.52-6.56,4.52-4.02,0-7.08-2.94-7.08-7.12s3.06-7.14,7.08-7.14Z"/>
  </g>
</svg>